<svg width="1328" height="1312" viewBox="0 0 1328 1312" fill="none" xmlns="http://www.w3.org/2000/svg">
<path d="M290.653 442.64H397.325V549.328H290.653V442.64Z" fill="#FFD45D"/>
<path d="M290.653 629.307H530.667V735.963H290.653V629.307Z" fill="#FF9F9E"/>
<path d="M290.653 255.987H477.307V362.659H290.653V255.987Z" fill="#80BDFF"/>
<path d="M557.333 255.987H664.005V362.659H557.333V255.987Z" fill="#9AE7EC"/>
<path d="M1143.99 255.987H1303.99V362.659H1143.99V255.987Z" fill="#223367"/>
<path d="M1197.33 629.307H1303.99V735.963H1197.33V629.307Z" fill="#223367"/>
<path d="M1288.4 1167.28L1062.15 941.04C1041.41 920.291 1005.07 889.009 981.521 871.603L878.609 795.556C893.62 776.807 907.041 756.807 919.172 735.957H1117.24V629.301H964.692C977.031 586.932 983.905 542.291 983.905 495.989C983.905 449.62 976.978 404.979 964.755 362.643H1063.91V255.971H919.172C836.177 112.651 681.532 15.9973 503.959 15.9973C238.812 15.9973 23.9453 230.891 23.9453 495.997C23.9453 761.091 238.825 975.984 503.972 975.984C617.379 975.984 721.372 936.448 803.505 870.672L879.568 973.552C896.959 997.151 928.317 1033.42 949.041 1054.15L1175.28 1280.48C1196.03 1301.2 1229.98 1301.2 1250.72 1280.48L1288.42 1242.7C1309.12 1221.96 1309.12 1187.99 1288.4 1167.28L1288.4 1167.28ZM503.947 869.333C297.733 869.333 130.587 702.227 130.587 496C130.587 289.84 297.733 122.653 503.947 122.653C618.712 122.653 721.213 174.539 789.693 255.981H743.917V362.653H852.319C862.048 388.127 869.021 414.831 872.991 442.637H477.244V549.325H873.004C869.035 577.085 862.061 603.836 852.332 629.309H610.599V735.965H789.745C721.313 817.435 618.705 869.325 503.932 869.325L503.947 869.333Z" fill="#223367"/>
<path d="M1063.99 442.64H1303.99V549.328H1063.99V442.64Z" fill="#223367"/>
<path d="M1021.05 946.175L930.344 993.998L917.403 981.069L948.493 921.583C948.907 920.723 949.383 919.8 949.924 918.814C950.464 917.827 951.068 916.808 951.736 915.758C950.686 916.427 949.668 917.032 948.682 917.573C947.696 918.115 946.774 918.592 945.915 919.007L886.316 950.013L873.327 937.037L921.107 846.326L933.141 858.348C934.382 859.589 935.131 860.909 935.386 862.309C935.673 863.741 935.467 865.061 934.767 866.271L906.488 916.067C905.662 917.404 904.74 918.836 903.722 920.364C902.768 921.892 901.719 923.483 900.574 925.138C902.292 923.992 903.93 922.957 905.489 922.033C907.048 921.11 908.559 920.298 910.022 919.597L961.557 893.034C962.607 892.492 963.864 892.317 965.327 892.507C966.855 892.697 968.224 893.396 969.433 894.605L973.636 898.803C974.877 900.043 975.578 901.348 975.738 902.716C975.961 904.084 975.803 905.421 975.262 906.725L948.702 958.239C948.067 959.639 947.304 961.103 946.413 962.631C945.555 964.127 944.601 965.687 943.552 967.31C945.142 966.227 946.637 965.209 948.037 964.253C949.5 963.298 950.868 962.438 952.141 961.674L1001.91 933.345C1002.96 932.74 1004.23 932.549 1005.73 932.771C1007.22 932.993 1008.58 933.708 1009.78 934.917L1021.05 946.175ZM975.96 1039.57L961.538 1025.16L1030.76 955.871L1045.18 970.278L975.96 1039.57ZM1137.99 1062.99L1068.77 1132.28L1056.11 1119.64L1098.62 1077.09C1099.51 1076.2 1100.48 1075.26 1101.53 1074.28C1102.61 1073.32 1103.74 1072.38 1104.92 1071.46L1047.55 1089.24C1044.4 1090.23 1041.7 1089.59 1039.44 1087.34L1037.43 1085.33C1036.32 1084.22 1035.59 1082.98 1035.24 1081.61C1034.92 1080.21 1035.01 1078.75 1035.52 1077.22L1053.29 1019.6C1052.28 1020.81 1051.27 1021.97 1050.29 1023.09C1049.33 1024.17 1048.41 1025.16 1047.52 1026.05L1005.02 1068.6L992.361 1055.95L1061.58 986.664L1072.47 997.541C1073.08 998.145 1073.6 998.701 1074.05 999.21C1074.49 999.719 1074.81 1000.23 1075 1000.74C1075.26 1001.25 1075.37 1001.8 1075.34 1002.41C1075.37 1003.01 1075.26 1003.73 1075 1004.56L1057.47 1060.89C1056.96 1062.6 1056.37 1064.31 1055.7 1065.99C1055.07 1067.71 1054.37 1069.43 1053.61 1071.15C1055.36 1070.35 1057.09 1069.6 1058.81 1068.9C1060.56 1068.23 1062.29 1067.64 1064.01 1067.13L1120.04 1049.54C1120.86 1049.29 1121.58 1049.18 1122.18 1049.21C1122.82 1049.21 1123.38 1049.32 1123.85 1049.54C1124.39 1049.76 1124.9 1050.08 1125.38 1050.49C1125.89 1050.94 1126.46 1051.48 1127.1 1052.12L1137.99 1062.99ZM1122.69 1164.2C1124.98 1166.49 1127.13 1168.1 1129.13 1169.02C1131.2 1169.94 1133.14 1170.39 1134.96 1170.36C1136.77 1170.32 1138.44 1169.89 1139.97 1169.06C1141.53 1168.2 1142.94 1167.14 1144.21 1165.86C1145.61 1164.46 1146.66 1163 1147.36 1161.47C1148.06 1159.94 1148.33 1158.34 1148.17 1156.65C1148.04 1154.93 1147.44 1153.12 1146.35 1151.21C1145.3 1149.33 1143.69 1147.31 1141.53 1145.15L1129.35 1132.99L1110.41 1151.94L1122.69 1164.2ZM1157.79 1104.52L1139.08 1123.24L1148.49 1132.64C1150.5 1134.65 1152.44 1136.27 1154.32 1137.51C1156.23 1138.72 1158.07 1139.48 1159.86 1139.8C1161.64 1140.11 1163.39 1139.95 1165.11 1139.32C1166.89 1138.68 1168.62 1137.52 1170.31 1135.83C1172.02 1134.11 1173.25 1132.41 1173.98 1130.72C1174.74 1129.07 1175.01 1127.39 1174.79 1125.71C1174.56 1124.02 1173.88 1122.29 1172.73 1120.51C1171.62 1118.69 1170.06 1116.79 1168.05 1114.78L1157.79 1104.52ZM1178.93 1103.89C1183.58 1108.54 1187.1 1112.94 1189.48 1117.11C1191.94 1121.28 1193.39 1125.21 1193.83 1128.9C1194.34 1132.59 1193.93 1136.06 1192.6 1139.3C1191.26 1142.55 1189.18 1145.59 1186.35 1148.42C1184.76 1150.01 1182.99 1151.3 1181.05 1152.29C1179.14 1153.31 1177.04 1153.98 1174.75 1154.3C1172.53 1154.62 1170.12 1154.54 1167.55 1154.06C1164.97 1153.59 1162.26 1152.67 1159.43 1151.3C1163.03 1157.12 1164.7 1162.42 1164.45 1167.19C1164.2 1171.96 1162.07 1176.36 1158.06 1180.37C1155.14 1183.3 1151.84 1185.45 1148.18 1186.82C1144.56 1188.22 1140.74 1188.76 1136.73 1188.44C1132.72 1188.13 1128.6 1186.9 1124.37 1184.77C1120.2 1182.65 1116.06 1179.53 1111.95 1175.43L1085.11 1148.62L1154.34 1079.33L1178.93 1103.89ZM1247.12 1241.19C1242.06 1246.25 1236.54 1250.05 1230.56 1252.6C1224.64 1255.15 1218.6 1256.39 1212.42 1256.33C1206.28 1256.31 1200.17 1254.97 1194.09 1252.33C1188.01 1249.7 1182.32 1245.72 1177 1240.41L1150.35 1213.79L1219.58 1144.5L1246.22 1171.12C1251.54 1176.43 1255.52 1182.12 1258.16 1188.2C1260.81 1194.28 1262.13 1200.4 1262.13 1206.58C1262.2 1212.75 1260.96 1218.79 1258.42 1224.71C1255.91 1230.67 1252.14 1236.16 1247.12 1241.19ZM1232.41 1226.49C1236.03 1222.86 1238.82 1219.12 1240.75 1215.27C1242.69 1211.42 1243.77 1207.6 1243.99 1203.82C1244.22 1200.03 1243.58 1196.31 1242.08 1192.65C1240.61 1189.02 1238.26 1185.59 1235.01 1182.34L1222.79 1170.13L1175.99 1216.98L1188.21 1229.19C1191.46 1232.43 1194.88 1234.8 1198.48 1236.29C1202.14 1237.79 1205.86 1238.42 1209.65 1238.2C1213.46 1237.94 1217.3 1236.84 1221.15 1234.9C1225 1232.96 1228.75 1230.15 1232.41 1226.49Z" fill="white"/>
</svg>
